 <svg xmlns="http://www.w3.org/2000/svg" viewBox="0 0 64 64" fill="none" stroke="white" stroke-width="2" stroke-linecap="round" stroke-linejoin="round">
	<!-- 배경 사각형 (남색) -->
	<rect x="0" y="0" width="64" height="64" fill="#323B4C" rx="8" ry="8"/>

	<!-- 테두리 프레임 -->
	<rect x="4" y="4" width="56" height="56" rx="6" ry="6"/>

	<!-- 파도 3줄 -->
	<path d="M7 44c4 0 6-4 10-4s6 4 10 4 6-4 10-4 6 4 10 4 6-4 10-4"/>
	<path d="M7 50c4 0 6-4 10-4s6 4 10 4 6-4 10-4 6 4 10 4 6-4 10-4" opacity="0.8"/>
	<path d="M7 56c4 0 6-4 10-4s6 4 10 4 6-4 10-4 6 4 10 4 6-4 10-4" opacity="0.6"/>

	<!-- 중심 마크 -->
	<circle cx="32" cy="22" r="6"/>
	<line x1="32" y1="12" x2="32" y2="7"/>
	<line x1="32" y1="37" x2="32" y2="32"/>
	<line x1="21" y1="21" x2="16" y2="21"/>
	<line x1="48" y1="21" x2="43" y2="21"/>
  </svg>